REM DIRINDEX 1\2\4,1\2\5,1\2\6,1\3\7,1\3\8,1\3\9,1\3\10
REM DIRNAME folder01,folder02,folder03,folder04,folder05,folder06,folder07,folder08,folder09,folder10
TITLE ""
FILE "b_162.mp3" MP3
  TRACK 01 AUDIO
    TITLE "0:"
    INDEX 01 00:00:00
  TRACK 02 AUDIO
    TITLE "7:cjc057_09142"
    INDEX 01 00:00:13
  TRACK 03 AUDIO
    TITLE "0:"
    INDEX 01 00:01:50
  TRACK 04 AUDIO
    TITLE "8:cjc057_09143"
    INDEX 01 00:02:10
  TRACK 05 AUDIO
    TITLE "0:"
    INDEX 01 00:03:35
  TRACK 06 AUDIO
    TITLE "9:cjc057_09144"
    INDEX 01 00:04:05
  TRACK 07 AUDIO
    TITLE "0:"
    INDEX 01 00:07:74
  TRACK 08 AUDIO
    TITLE "7:cjc057_09145"
    INDEX 01 00:09:08
  TRACK 09 AUDIO
    TITLE "0:"
    INDEX 01 00:10:47
  TRACK 10 AUDIO
    TITLE "8:cjc057_09146"
    INDEX 01 00:11:09
  TRACK 11 AUDIO
    TITLE "0:"
    INDEX 01 00:12:44
  TRACK 12 AUDIO
    TITLE "9:cjc057_09147"
    INDEX 01 00:13:14
  TRACK 13 AUDIO
    TITLE "0:"
    INDEX 01 00:17:08
  TRACK 14 AUDIO
    TITLE "7:cjc057_09148"
    INDEX 01 00:18:19
  TRACK 15 AUDIO
    TITLE "0:"
    INDEX 01 00:19:38
  TRACK 16 AUDIO
    TITLE "8:cjc057_09149"
    INDEX 01 00:20:00
  TRACK 17 AUDIO
    TITLE "0:"
    INDEX 01 00:21:49
  TRACK 18 AUDIO
    TITLE "9:cjc057_09150"
    INDEX 01 00:22:19
  TRACK 19 AUDIO
    TITLE "0:"
    INDEX 01 00:25:50
  TRACK 20 AUDIO
    TITLE "7:cjc057_09151"
    INDEX 01 00:26:60
  TRACK 21 AUDIO
    TITLE "0:"
    INDEX 01 00:28:21
  TRACK 22 AUDIO
    TITLE "8:cjc057_09152"
    INDEX 01 00:28:53
  TRACK 23 AUDIO
    TITLE "0:"
    INDEX 01 00:30:14
  TRACK 24 AUDIO
    TITLE "9:cjc057_09153"
    INDEX 01 00:30:59
  TRACK 25 AUDIO
    TITLE "0:"
    INDEX 01 00:35:29
  TRACK 26 AUDIO
    TITLE "7:cjc057_09154"
    INDEX 01 00:36:38
  TRACK 27 AUDIO
    TITLE "0:"
    INDEX 01 00:37:65
  TRACK 28 AUDIO
    TITLE "8:cjc057_09155"
    INDEX 01 00:38:26
  TRACK 29 AUDIO
    TITLE "0:"
    INDEX 01 00:41:10
  TRACK 30 AUDIO
    TITLE "9:cjc057_09156"
    INDEX 01 00:41:53
  TRACK 31 AUDIO
    TITLE "0:"
    INDEX 01 00:45:20
  TRACK 32 AUDIO
    TITLE "7:cjc057_09157"
    INDEX 01 00:46:31
  TRACK 33 AUDIO
    TITLE "0:"
    INDEX 01 00:47:64
  TRACK 34 AUDIO
    TITLE "8:cjc057_09158"
    INDEX 01 00:48:22
  TRACK 35 AUDIO
    TITLE "0:"
    INDEX 01 00:50:68
  TRACK 36 AUDIO
    TITLE "9:cjc057_09159"
    INDEX 01 00:51:38
  TRACK 37 AUDIO
    TITLE "0:"
    INDEX 01 00:54:32
  TRACK 38 AUDIO
    TITLE "7:cjc057_09160"
    INDEX 01 00:55:42
  TRACK 39 AUDIO
    TITLE "0:"
    INDEX 01 00:57:07
  TRACK 40 AUDIO
    TITLE "8:cjc057_09161"
    INDEX 01 00:57:43
  TRACK 41 AUDIO
    TITLE "0:"
    INDEX 01 00:59:43
  TRACK 42 AUDIO
    TITLE "9:cjc057_09162"
    INDEX 01 01:00:13
  TRACK 43 AUDIO
    TITLE "0:"
    INDEX 01 01:04:29
  TRACK 44 AUDIO
    TITLE "7:cjc057_09163"
    INDEX 01 01:05:36
  TRACK 45 AUDIO
    TITLE "0:"
    INDEX 01 01:07:02
  TRACK 46 AUDIO
    TITLE "8:cjc057_09164"
    INDEX 01 01:07:31
  TRACK 47 AUDIO
    TITLE "0:"
    INDEX 01 01:09:71
  TRACK 48 AUDIO
    TITLE "9:cjc057_09165"
    INDEX 01 01:10:41
  TRACK 49 AUDIO
    TITLE "0:"
    INDEX 01 01:14:21
  TRACK 50 AUDIO
    TITLE "7:cjc057_09166"
    INDEX 01 01:15:31
  TRACK 51 AUDIO
    TITLE "0:"
    INDEX 01 01:16:50
  TRACK 52 AUDIO
    TITLE "8:cjc057_09167"
    INDEX 01 01:17:10
  TRACK 53 AUDIO
    TITLE "0:"
    INDEX 01 01:19:50
  TRACK 54 AUDIO
    TITLE "9:cjc057_09168"
    INDEX 01 01:20:22
  TRACK 55 AUDIO
    TITLE "0:"
    INDEX 01 01:23:73
  TRACK 56 AUDIO
    TITLE "7:cjc057_09169"
    INDEX 01 01:25:08
  TRACK 57 AUDIO
    TITLE "0:"
    INDEX 01 01:26:23
  TRACK 58 AUDIO
    TITLE "8:cjc057_09170"
    INDEX 01 01:26:60
  TRACK 59 AUDIO
    TITLE "0:"
    INDEX 01 01:29:54
  TRACK 60 AUDIO
    TITLE "9:cjc057_09171"
    INDEX 01 01:30:26
  TRACK 61 AUDIO
    TITLE "0:"
    INDEX 01 01:33:23
